# xmcd
#
# Track frame offsets: 
#        150
#        33996
#        59621
#        97428
#        124207
#        160241
#        180456
#        211442
#
# Disc length: 3168 seconds
#
# Revision: 0
# Processed by: cddbd v1.5.2PL0 Copyright (c) Steve Scherf et al.
# Submitted via: ExactAudioCopy v0.99pb3
#
DISCID=750c5e08
DTITLE=Bob Dylan - Live at the Memorial Auditorium, Sacramento CA 2001
DTITLE=10-01 [disc 2]
DYEAR=2001
DGENRE=Folk/Rock
TTITLE0=Sugar Baby
TTITLE1=The Wicked Messenger
TTITLE2=Leopard-Skin Pill-box Hat
TTITLE3=Love Sick
TTITLE4=Like a Rolling Stone
TTITLE5=If Dogs Run Free
TTITLE6=Honest with Me
TTITLE7=Blowin' in the Wind
EXTD=
EXTT0=
EXTT1=
EXTT2=
EXTT3=
EXTT4=
EXTT5=
EXTT6=
EXTT7=
PLAYORDER=
